<svg width="70" height="30" viewBox="0 0 55 27" fill="#fff" xmlns="http://www.w3.org/2000/svg">
<path d="M0 0V27H5.97812V0H0ZM7.77164 0V27H10.7607V0H7.77164ZM11.9562 0V27H13.1518V0H11.9562ZM14.3477 0V27H17.9347V0H14.3477ZM19.1302 0V27H20.3258V0H19.1302ZM22.7173 0V27H23.9128V0H22.7173ZM25.7063 0V27H26.9019V0H25.7063ZM28.0977 0V27H29.2933V0H28.0977ZM31.6848 0V27H36.4673V0H31.6848ZM38.2609 0V27H41.8479V0H38.2609ZM44.239 0V27H45.4345V0H44.239ZM46.6304 0V27H49.0218V0H46.6304ZM50.2174 0V27H55V0H50.2174Z" fill="white"/>
</svg>
